<svg class="diagram-root" style="background: #f5f6f6" xmlns="http://www.w3.org/2000/svg" xmlns:xlink="http://www.w3.org/1999/xlink"><style>.diagram-root { font-family: "Helvetica Neue", sans-serif; font-size: 12px; } .t { overflow: visible; } .t-bg { y: 40; fill: #fff;   } .th { fill: #005aa0;   } .tht { fill: #fff; font-size: 14px;  } .tf { fill: #323c46; overflow: visible; } .tf.pk { fill: #005aa0; font-weight: bold; } .tf.fk { font-weight: bold; } .ty { fill: #adb1b5; font-weight: normal; text-anchor: end; } .r { fill: transparent; stroke: #c3c3c3; stroke-width: 1; } .l { stroke: 1; } .i { fill: #c2c7ce; stroke: #c2c7ce; } .i.ix { fill: #afb3b6; stroke: #000; } .fa { fill: transparent; overflow: visible; } .fa .bg.hover { fill: #f7f7f7; } .c { cy: 12; r: 4; stroke: #d2d2dc; fill: #d2d2dc; } .hr { fill: transparent; stroke: #323c46; stroke-opacity: 0.035; stroke-width: 13; } .dc { stroke: #fa5a3c; fill: #fa5a3c; } .x { stroke: white; stroke-width: 1; } .hl .th { fill: #1b9bff; } .hl .tht {  } .fhl .bg { fill: #e7f4ff; } .fhls .bg {  } .r.hl { stroke: #1b9bff; } .dim { opacity: 0.25; }</style><g class="drawing-wrapper" transform="translate(-228, -222) scale(1,1)"><g class="rs"><path d="M 537 338 m -1, 0 a 1,1 0 1,0 2,0 a 1,1 0 1,0 -2,0 M 537 338 m -0.5, 0 a 0.5,0.5 0 1,0 1,0 a 0.5,0.5 0 1,0 -1,0  M537 338 L537 338 525 338 M531 344 L531 344 531 332 M525 338 Q 494.76 338, 464.52 323.5 T 404.04 309 M 392.04 309 m -1, 0 a 1,1 0 1,0 2,0 a 1,1 0 1,0 -2,0 M 392.04 309 m -0.5, 0 a 0.5,0.5 0 1,0 1,0 a 0.5,0.5 0 1,0 -1,0  M392.04 309 L392.04 309 404.04 309 M398.04 315 L398.04 315 398.04 303" id="h2469324419" class="r"></path></g><g class="hrs"></g><g class="ts"><svg width="124.04" height="125" x="537" y="256" id="h2582634200" class="t"><rect height="40" width="124.04" class="th"></rect><text x="13" y="25" class="tht">Wallet</text><rect height="85" width="124.04" class="t-bg"></rect><text x="13" y="61" class="tf pk">id<tspan x="111.04" class="ty">int</tspan></text><path d="M7,14A2,2 0 0,1 5,12A2,2 0 0,1 7,10A2,2 0 0,1 9,12A2,2 0 0,1 7,14M12.65,10C11.83,7.67 9.61,6 7, 6A6, 6 0 0, 0 1, 12A6, 6 0 0, 0 7, 18C9.61, 18 11.83, 16.33 12.65, 14H17V18H21V14H23V10H12.65Z" class="i pk" transform="translate(78.366171875, 48) scale(0.65)"></path><text x="13" y="86" class="tf fk">id_customer<tspan x="111.04" class="ty">int</tspan></text><text x="13" y="111" class="tf">balance<tspan x="111.04" class="ty">int</tspan></text></svg><svg width="142.04" height="150" x="250" y="252" id="h1304670300" class="t"><rect height="40" width="142.04" class="th"></rect><text x="13" y="25" class="tht">Customer</text><rect height="110" width="142.04" class="t-bg"></rect><text x="13" y="61" class="tf pk">id<tspan x="129.04" class="ty">int</tspan></text><path d="M7,14A2,2 0 0,1 5,12A2,2 0 0,1 7,10A2,2 0 0,1 9,12A2,2 0 0,1 7,14M12.65,10C11.83,7.67 9.61,6 7, 6A6, 6 0 0, 0 1, 12A6, 6 0 0, 0 7, 18C9.61, 18 11.83, 16.33 12.65, 14H17V18H21V14H23V10H12.65Z" class="i pk" transform="translate(96.36617187499999, 48) scale(0.65)"></path><text x="13" y="86" class="tf">email<tspan x="129.04" class="ty">varchar</tspan></text><text x="13" y="111" class="tf">first_name<tspan x="129.04" class="ty">varchar</tspan></text><text x="13" y="136" class="tf">last_name<tspan x="129.04" class="ty">varchar</tspan></text></svg></g></g><text class="qdbd-link" x="10" y="20">www.quickdatabasediagrams.com</text></svg>